<svg width="348" height="358" viewBox="0 0 348 358" fill="none" xmlns="http://www.w3.org/2000/svg">
<path d="M37.2875 156.518C37.2875 156.518 98.3031 154.075 111.489 53.7782C123.198 -35.2948 226.086 5.24798 255.827 40.7546C294.354 86.7505 273.817 165.873 323.656 175.868C373.496 185.864 340.95 296.996 265.296 286.359C171.186 273.126 193.955 328.119 165.704 351.396C145.428 368.101 62.2917 352.02 59.5209 291.378C57.1892 240.348 35.6639 240.51 20.4067 234.724C-1.5978 226.379 -15.463 165.942 37.2875 156.518Z" fill="#B3B3B3"/>
<path d="M244.706 267.904L184.76 208.669L172.89 220.682L232.836 279.917L244.706 267.904Z" fill="#800080" fill-opacity="0.5"/>
<path d="M267.606 283.82L220.968 237.736C220.708 237.479 220.29 237.482 220.033 237.741L202.381 255.605C202.124 255.865 202.127 256.284 202.386 256.54L249.025 302.625C249.284 302.882 249.703 302.879 249.959 302.619L267.612 284.755C267.868 284.495 267.866 284.077 267.606 283.82Z" fill="#997999"/>
<path d="M131.63 238.46C172.871 238.46 206.304 205.028 206.304 163.786C206.304 122.545 172.871 89.1129 131.63 89.1129C90.389 89.1129 56.9565 122.545 56.9565 163.786C56.9565 205.028 90.389 238.46 131.63 238.46Z" fill="#997999"/>
<path d="M131.63 226.276C166.142 226.276 194.119 198.299 194.119 163.787C194.119 129.275 166.142 101.298 131.63 101.298C97.118 101.298 69.1406 129.275 69.1406 163.787C69.1406 198.299 97.118 226.276 131.63 226.276Z" fill="#ABABAB"/>
<path d="M257.874 96.2811C240.358 90.6036 221.429 100.206 215.728 117.794C210.051 135.31 219.653 154.239 237.241 159.939C254.83 165.64 273.709 155.943 279.388 138.427C285.067 120.91 275.391 101.958 257.874 96.2811ZM252.589 112.587C254.55 113.223 256.277 114.426 257.553 116.045C258.829 117.664 259.595 119.625 259.754 121.68C259.914 123.735 259.459 125.791 258.449 127.587C257.438 129.383 255.917 130.839 254.077 131.769C252.238 132.7 250.164 133.063 248.119 132.813C246.073 132.563 244.147 131.711 242.586 130.365C241.026 129.019 239.899 127.24 239.351 125.253C238.803 123.266 238.857 121.162 239.506 119.206C241.26 113.794 247.177 110.833 252.589 112.587ZM239.365 153.388C233.545 151.512 228.56 147.67 225.261 142.522C231.433 139.015 237.888 138.038 243.727 139.931C249.566 141.823 254.314 146.352 257.161 152.862C251.47 155.096 245.178 155.282 239.365 153.388Z" fill="#2C21A4" fill-opacity="0.4"/>
<path d="M112.084 255.895C109.042 257.448 106.528 259.869 104.862 262.85C103.195 265.832 102.449 269.24 102.72 272.646C102.99 276.051 104.264 279.299 106.381 281.98C108.498 284.661 111.362 286.654 114.611 287.707C117.861 288.761 121.349 288.827 124.636 287.897C127.923 286.967 130.861 285.084 133.077 282.485C135.294 279.886 136.69 276.688 137.089 273.295C137.488 269.903 136.872 266.468 135.319 263.426C133.233 259.35 129.615 256.268 125.259 254.856C120.903 253.444 116.165 253.818 112.084 255.895ZM116.107 263.776C117.055 263.292 118.125 263.101 119.181 263.226C120.238 263.351 121.233 263.787 122.041 264.479C122.85 265.171 123.434 266.087 123.721 267.112C124.008 268.136 123.984 269.223 123.652 270.234C123.32 271.245 122.696 272.134 121.858 272.79C121.02 273.445 120.006 273.837 118.945 273.915C117.884 273.994 116.823 273.755 115.898 273.23C114.973 272.705 114.224 271.917 113.748 270.966C113.116 269.698 113.009 268.232 113.451 266.886C113.893 265.54 114.847 264.422 116.107 263.775V263.776ZM126.172 283.495C123.363 284.934 120.141 285.352 117.058 284.677C118.031 281.143 120.03 278.431 122.853 276.991C125.676 275.55 129.061 275.47 132.476 276.807C131.214 279.7 128.986 282.064 126.172 283.494V283.495Z" fill="#2C21A4" fill-opacity="0.4"/>
</svg>
