<svg width="118" height="45" viewBox="0 0 118 45" fill="none" xmlns="http://www.w3.org/2000/svg">
<path d="M82.6626 20.2593V44H73.2832V13.8857H82.0781L82.6626 20.2593ZM81.5215 27.9131L79.3784 27.9688C79.3784 25.8535 79.6289 23.9053 80.1299 22.124C80.6309 20.3428 81.373 18.7935 82.3564 17.4761C83.3398 16.1587 84.5459 15.1382 85.9746 14.4146C87.4219 13.6909 89.0918 13.3291 90.9844 13.3291C92.3018 13.3291 93.4985 13.5332 94.5747 13.9414C95.6509 14.3311 96.5786 14.9526 97.3579 15.8062C98.1372 16.6411 98.731 17.7358 99.1392 19.0903C99.5659 20.4263 99.7793 22.0312 99.7793 23.9053V44H90.3999V25.1021C90.3999 23.8218 90.2515 22.8569 89.9546 22.2075C89.6763 21.5581 89.2681 21.1221 88.73 20.8994C88.1919 20.6768 87.5332 20.5654 86.7539 20.5654C85.9375 20.5654 85.2046 20.751 84.5552 21.1221C83.9058 21.4932 83.3491 22.0127 82.8853 22.6807C82.4399 23.3301 82.0967 24.1001 81.8555 24.9907C81.6328 25.8813 81.5215 26.8555 81.5215 27.9131ZM98.7217 27.9131L96.1055 27.9688C96.1055 25.8535 96.3374 23.9053 96.8013 22.124C97.2837 20.3428 97.998 18.7935 98.9443 17.4761C99.9092 16.1587 101.106 15.1382 102.535 14.4146C103.963 13.6909 105.624 13.3291 107.517 13.3291C108.89 13.3291 110.151 13.5332 111.302 13.9414C112.452 14.3496 113.445 15.0083 114.28 15.9175C115.115 16.8267 115.764 18.0327 116.228 19.5356C116.692 21.02 116.924 22.8569 116.924 25.0464V44H107.517V25.0464C107.517 23.8032 107.368 22.8662 107.071 22.2354C106.793 21.5859 106.385 21.1499 105.847 20.9272C105.309 20.686 104.668 20.5654 103.926 20.5654C103.036 20.5654 102.266 20.751 101.616 21.1221C100.967 21.4932 100.419 22.0127 99.9741 22.6807C99.5474 23.3301 99.2319 24.1001 99.0278 24.9907C98.8237 25.8813 98.7217 26.8555 98.7217 27.9131Z" fill="white"/>
<path d="M41 0H50.4266V37.9149L49.4476 44.5045H41V0ZM69 30.805V31.3253C69 33.3567 68.7669 35.2064 68.3007 36.8744C67.8345 38.5425 67.1166 39.9876 66.1469 41.2097C65.1772 42.4153 63.9557 43.3485 62.4825 44.0091C61.0093 44.6697 59.2657 45 57.2517 45C55.4242 45 53.8578 44.6532 52.5524 43.9595C51.2471 43.2494 50.1562 42.275 49.2797 41.0363C48.4033 39.7811 47.6946 38.3361 47.1538 36.701C46.6131 35.0495 46.1841 33.2824 45.8671 31.3996V30.7803C46.1841 28.914 46.6131 27.1634 47.1538 25.5284C47.6946 23.8769 48.4033 22.4318 49.2797 21.1931C50.1562 19.9379 51.2378 18.9635 52.5245 18.2699C53.8298 17.5597 55.3869 17.2047 57.1958 17.2047C59.2284 17.2047 60.9814 17.5432 62.4545 18.2203C63.9464 18.8975 65.1772 19.8471 66.1469 21.0692C67.1166 22.2914 67.8345 23.7282 68.3007 25.3798C68.7669 27.0313 69 28.8397 69 30.805ZM59.5734 31.3253V30.805C59.5734 29.8306 59.5082 28.914 59.3776 28.0552C59.2471 27.1964 59.014 26.4367 58.6783 25.7761C58.3427 25.1155 57.8671 24.5953 57.2517 24.2154C56.6364 23.8356 55.8345 23.6456 54.8462 23.6456C53.8392 23.6456 52.9907 23.7943 52.3007 24.0916C51.6294 24.3888 51.0886 24.8182 50.6783 25.3798C50.2867 25.9248 50.007 26.6019 49.8392 27.4111C49.6713 28.2039 49.5967 29.104 49.6154 30.1114V32.0685C49.5781 33.4393 49.7179 34.6118 50.035 35.5862C50.352 36.5607 50.9021 37.3038 51.6853 37.8158C52.4685 38.3278 53.5408 38.5838 54.9021 38.5838C55.9091 38.5838 56.7203 38.4104 57.3357 38.0635C57.9697 37.7167 58.4452 37.2213 58.7622 36.5772C59.0793 35.9331 59.2937 35.1651 59.4056 34.2733C59.5175 33.3814 59.5734 32.3988 59.5734 31.3253Z" fill="white"/>
<path d="M37.5449 6.89769V12.8979H19V6.89769H37.5449ZM22.8967 0H32.482V35.4355C32.482 36.1706 32.5768 36.7433 32.7665 37.1536C32.9561 37.5467 33.2784 37.8288 33.7335 37.9997C34.2076 38.1536 34.8333 38.2305 35.6108 38.2305C36.1607 38.2305 36.6158 38.222 36.976 38.2049C37.3363 38.1707 37.6776 38.128 38 38.0767V44.2564C37.1846 44.4957 36.3313 44.6752 35.4401 44.7949C34.5489 44.9316 33.6008 45 32.5958 45C30.5479 45 28.7939 44.7094 27.3338 44.1282C25.8927 43.547 24.7929 42.6324 24.0344 41.3845C23.2759 40.1366 22.8967 38.5126 22.8967 36.5125V0Z" fill="white"/>
<path d="M118 6.89769V12.8979H0V6.89769H118ZM3.88026 0H13.4251V35.4355C13.4251 36.1706 13.5196 36.7433 13.7084 37.1536C13.8972 37.5467 14.2182 37.8288 14.6714 37.9997C15.1434 38.1536 15.7665 38.2305 16.5407 38.2305C17.0883 38.2305 17.5414 38.222 17.9002 38.2049C18.259 38.1707 18.5988 38.128 18.9198 38.0767V44.2564C18.1079 44.4957 17.2582 44.6752 16.3708 44.7949C15.4833 44.9316 14.5392 45 13.5384 45C11.4992 45 9.75259 44.7094 8.29867 44.1282C6.86363 43.547 5.76847 42.6324 5.01319 41.3845C4.25791 40.1366 3.88026 38.5126 3.88026 36.5125V0Z" fill="white"/>
</svg>
